<mxfile host="app.diagrams.net" modified="2023-05-17T14:28:57.849Z" agent="Mozilla/5.0 (Windows NT 10.0; Win64; x64) AppleWebKit/537.36 (KHTML, like Gecko) Chrome/113.0.0.0 Safari/537.36" etag="7xCnWzqggNyl9jCTYFnl" version="21.3.2" type="github">
  <diagram name="Página-1" id="_D9xqmZomV4mIIhaFsrd">
    <mxGraphModel dx="1434" dy="756" grid="1" gridSize="10" guides="1" tooltips="1" connect="1" arrows="1" fold="1" page="1" pageScale="1" pageWidth="827" pageHeight="1169" math="0" shadow="0">
      <root>
        <mxCell id="0" />
        <mxCell id="1" parent="0" />
        <mxCell id="MxytkL_6uwHDZ64c6ipp-3" value="" style="edgeStyle=orthogonalEdgeStyle;rounded=0;orthogonalLoop=1;jettySize=auto;html=1;" parent="1" source="MxytkL_6uwHDZ64c6ipp-1" target="MxytkL_6uwHDZ64c6ipp-2" edge="1">
          <mxGeometry relative="1" as="geometry" />
        </mxCell>
        <mxCell id="MxytkL_6uwHDZ64c6ipp-1" value="" style="rounded=0;whiteSpace=wrap;html=1;" parent="1" vertex="1">
          <mxGeometry x="80" y="130" width="120" height="60" as="geometry" />
        </mxCell>
        <mxCell id="MxytkL_6uwHDZ64c6ipp-2" value="" style="rounded=0;whiteSpace=wrap;html=1;" parent="1" vertex="1">
          <mxGeometry x="280" y="130" width="120" height="60" as="geometry" />
        </mxCell>
        <mxCell id="MxytkL_6uwHDZ64c6ipp-7" value="&lt;br&gt;&amp;nbsp;[LMS-1048] - Atualizar módulo de uma turma em andamento" style="text;html=1;align=center;verticalAlign=middle;resizable=0;points=[];autosize=1;strokeColor=none;fillColor=none;fontStyle=1" parent="1" vertex="1">
          <mxGeometry x="20" width="370" height="40" as="geometry" />
        </mxCell>
        <mxCell id="H0ywXH4Dreiq-4G9I1Nh-1" value="&lt;div&gt;{&amp;nbsp;&lt;/div&gt;&lt;div&gt;&amp;nbsp; &amp;nbsp;&quot;moduleTemplateId&quot;: &quot;string&quot;,&lt;/div&gt;&lt;div&gt;&amp;nbsp; &amp;nbsp;&quot;moduleTemplateCode&quot;: &quot;string&quot;,&lt;/div&gt;&lt;div&gt;&amp;nbsp; &amp;nbsp;&quot;itemsToUpdate&quot;: [&quot;string&quot;],&lt;/div&gt;&lt;div&gt;&amp;nbsp; &amp;nbsp;&quot;classModuleIds&quot;: [&quot;string&quot;]&lt;/div&gt;&lt;div&gt;&amp;nbsp; }&lt;/div&gt;" style="text;html=1;strokeColor=none;fillColor=none;align=left;verticalAlign=middle;whiteSpace=wrap;rounded=0;" vertex="1" parent="1">
          <mxGeometry x="530" y="70" width="260" height="30" as="geometry" />
        </mxCell>
      </root>
    </mxGraphModel>
  </diagram>
</mxfile>
